<?xml version="1.0" standalone="no"?>
<!DOCTYPE svg PUBLIC "-//W3C//DTD SVG 20010904//EN"
 "http://www.w3.org/TR/2001/REC-SVG-20010904/DTD/svg10.dtd">
<svg version="1.0" xmlns="http://www.w3.org/2000/svg"
 width="180.000000pt" height="180.000000pt" viewBox="0 0 180.000000 180.000000"
 preserveAspectRatio="xMidYMid meet">

<g transform="translate(0.000000,180.000000) scale(0.100000,-0.100000)"
fill="#000000" stroke="none">
<path d="M102 1793 c-40 -8 -90 -67 -97 -115 -3 -24 -5 -389 -3 -813 3 -725 4
-772 21 -797 10 -15 30 -35 45 -45 26 -17 70 -18 832 -18 762 0 806 1 832 18
15 10 35 30 45 45 17 26 18 70 18 832 0 762 -1 806 -18 832 -10 15 -30 35 -45
45 -26 17 -71 18 -817 19 -434 1 -800 -1 -813 -3z m636 -635 c1 -181 6 -328
11 -328 5 0 66 70 137 155 l128 156 110 -3 c72 -2 111 -7 113 -15 2 -6 -64
-91 -147 -187 l-150 -176 155 -207 c85 -113 155 -214 155 -225 0 -16 -10 -18
-108 -18 l-108 0 -109 148 c-59 81 -124 167 -144 192 l-36 45 -5 -190 -5 -190
-95 0 -95 0 -3 555 c-1 305 0 565 3 577 4 17 16 23 67 31 35 5 77 9 93 8 l30
-1 3 -327z"/>
</g>
</svg>
