<?xml version="1.0" standalone="no"?>
<!DOCTYPE svg PUBLIC "-//W3C//DTD SVG 20010904//EN"
 "http://www.w3.org/TR/2001/REC-SVG-20010904/DTD/svg10.dtd">
<svg version="1.0" xmlns="http://www.w3.org/2000/svg"
 width="401.000000pt" height="383.000000pt" viewBox="0 0 401.000000 383.000000"
 preserveAspectRatio="xMidYMid meet">

<g transform="translate(0.000000,383.000000) scale(0.100000,-0.100000)"
fill="#000000" stroke="none">
<path d="M3456 3808 c-19 -18 -105 -252 -390 -1063 -201 -572 -366 -1050 -366
-1062 0 -58 82 -84 118 -38 11 13 48 107 82 207 35 101 142 406 237 678 96
272 222 630 279 795 58 165 110 315 117 333 l11 32 213 0 c205 0 213 1 233 22
27 29 25 64 -5 93 l-24 25 -240 0 c-235 0 -240 0 -265 -22z"/>
<path d="M1654 2531 c-42 -25 -72 -66 -84 -113 -18 -66 8 -108 65 -108 38 0
65 28 65 67 0 33 29 43 124 43 92 0 116 -11 116 -54 0 -51 79 -76 115 -36 26
28 16 108 -18 153 -43 57 -78 67 -224 67 -108 0 -133 -3 -159 -19z"/>
<path d="M842 2219 c-23 -12 -52 -35 -65 -53 -21 -30 -22 -41 -25 -270 -3
-235 -3 -239 19 -262 30 -32 78 -32 107 -1 20 22 22 34 24 232 l3 210 515 0
515 0 5 -212 c4 -183 7 -215 22 -233 25 -28 78 -27 106 3 21 23 22 31 22 253
0 218 -1 231 -23 268 -14 25 -39 48 -66 63 l-44 23 -536 0 c-525 0 -537 0
-579 -21z"/>
<path d="M490 1517 c-49 -16 -73 -36 -99 -77 -18 -31 -21 -50 -21 -156 0 -143
11 -168 73 -168 64 0 76 21 79 143 l3 106 1160 0 1160 0 3 -104 c3 -109 9
-127 49 -142 28 -10 80 7 93 31 16 30 12 246 -5 279 -20 39 -69 78 -113 91
-56 15 -2335 12 -2382 -3z"/>
<path d="M426 1020 c-80 -14 -157 -48 -221 -95 -144 -108 -213 -261 -202 -445
12 -209 145 -381 348 -451 89 -31 229 -31 318 0 408 141 478 673 120 915 -95
64 -249 96 -363 76z m240 -188 c36 -18 80 -52 107 -82 212 -235 27 -611 -288
-587 -238 18 -390 258 -305 482 33 84 123 174 205 203 90 32 199 26 281 -16z"/>
<path d="M410 734 c-148 -64 -187 -275 -72 -387 49 -48 98 -67 174 -67 160 0
269 148 224 302 -31 108 -113 168 -227 168 -35 -1 -80 -8 -99 -16z m150 -129
c37 -19 50 -43 50 -92 -1 -90 -107 -137 -170 -74 -40 40 -48 76 -24 120 31 58
87 76 144 46z"/>
<path d="M2778 1020 c-85 -15 -145 -40 -215 -89 -293 -208 -283 -646 19 -845
163 -107 389 -108 552 -2 312 203 314 657 3 861 -97 63 -248 95 -359 75z m230
-185 c43 -19 78 -45 112 -82 161 -176 109 -449 -108 -555 -59 -30 -76 -33
-152 -33 -73 0 -94 4 -148 29 -145 67 -233 233 -202 383 28 132 114 231 241
277 67 25 178 17 257 -19z"/>
<path d="M2764 736 c-51 -23 -100 -73 -124 -128 -51 -119 7 -264 127 -315 52
-21 150 -16 203 11 177 90 166 356 -17 433 -41 17 -149 16 -189 -1z m153 -133
c32 -21 53 -69 46 -106 -8 -42 -58 -87 -96 -87 -76 0 -133 77 -107 141 27 64
101 88 157 52z"/>
<path d="M1160 840 c-20 -20 -26 -65 -12 -86 21 -32 52 -34 547 -34 l496 0 24
25 c30 30 31 54 4 89 l-20 26 -510 0 c-496 0 -510 -1 -529 -20z"/>
<path d="M1157 422 c-22 -25 -21 -75 1 -95 17 -15 68 -17 526 -17 310 0 514 4
526 10 35 19 33 88 -4 112 -6 4 -241 8 -522 8 -482 0 -512 -1 -527 -18z"/>
</g>
</svg>
